<?xml version="1.0" ?><svg class="svg-icon" style="width: 16px; height: 16px;vertical-align: middle;fill: currentColor;overflow: hidden;" version="1.1" viewBox="0 0 1024 1024" xmlns="http://www.w3.org/2000/svg"><path d="M859.6 330.4l-104.4-101.6L714 188h-286.4v17.6l-76.8 30L384 311.2l-16 16-75.6-32.8-30 76.8H240l-31.2-79.6V1024H864V334l-4.4-3.6z m-8.8 680.8H220.8V358.4l10 25.6h40l28.4-72.4 71.6 31.2 21.6-21.6 6.8-6.4L368 243.2l72.8-28.4v-13.6h268.4l132.8 129.6 9.2 8.8v671.6z" fill="#4A555F"/><path d="M967.2 227.2l-149.6-146H382l-31.2 71.2 76.8 30.4v18h281.2l132.8 129.6 9.2 8.8V932h116.8V230l-0.4-2.8z m-12.4 692.4h-91.2V334l-108-105.6L714 188h-273.6v-14L368 145.6l22.4-51.6h422.4l107.6 104.8 25.2 24.8 9.2 9.2v686.8z" fill="#4A555F"/><path d="M967.2 227.2l-149.6-146h-8.8V236h158.4v-8.8z m-145.6-3.6V102.8l98.4 96 25.2 24.8h-123.6zM859.6 330.4l-104.4-101.6L714 188h-8.8v154.8h158.4v-8.8l-4-3.6z m-142 0V209.6l124 120.8h-124zM318.4 456.8h444.4v12.8H318.4zM318.4 560h444.4v12.8H318.4zM318.4 663.2h184.4v12.8H318.4zM318.4 765.2h184.4v12.8H318.4zM318.4 866.8h184.4v12.8H318.4z" fill="#4A555F"/><path d="M640 316v67.6H318.4V316h8.4l42.4 18.8L388 316z" fill="#FFD552"/><path d="M270.8 383.6h-40l-28.8-72.8-72 31.2-3.6-4.4-28.8-28.8 31.2-71.6-72.4-28.4v-40l72.4-28.4-31.2-71.2 4.4-4.8 23.6-23.6L197.2 72l28.8-72h40l28.8 72.4 71.6-31.2 32.8 32.8L368 145.6l72.8 28.8v40L368 242.8l31.2 71.6-4.8 4.8-23.2 23.6-71.6-31.2-28.8 72z m-31.2-12.4h22.4L292 294.4l76 32.8 16-16-32.8-75.6 76.8-30v-22.8l-76.8-30.4L384 77.2l-20.4-20.4L288 89.6 257.6 12.8h-22.8l-30 76.8-75.6-32.8-16 16L146 148l-76.8 30v22.8l76.8 30-32.8 75.6 20.8 20.4 75.6-32.8 30 77.2zM248 259.6c-23.2 0-45.2-12.4-57.2-32.8-6-10-9.2-21.6-9.2-33.6 0-36.8 29.6-66.4 66.4-66.4 11.6 0 22.8 3.2 32.8 8.8 20.8 11.6 33.6 34 33.6 57.6 0.4 36.4-29.6 66.4-66.4 66.4z m0-120.4c-29.6 0-53.6 24-53.6 53.6 0 9.6 2.4 19.2 7.6 27.2 9.6 16.4 27.2 26.4 46.4 26.4 29.6 0 53.6-24 53.6-53.6 0-19.2-10.4-37.2-27.2-46.8-8-4-17.2-6.8-26.8-6.8z" fill="#4A555F"/><path d="M249.6 356.4l-32-81.6-80.4 35.2-6.4-6.4 34.8-80.4-81.6-32v-2.4l81.6-32L130.8 76l1.6-1.6 80.4 34.8 32-81.6h2.4l32 81.6L360 74l6.4 6.4-35.2 80.4 81.6 32v2.4l-81.6 32L366.4 308l-1.6 1.6L284 274.4 252 356h-2.4zM248 112c-44.8 0-81.2 36.4-81.2 81.2 0 14.8 4 28.8 11.6 41.2 14.4 24.4 41.2 39.6 69.6 39.6 44.8 0 81.2-36.4 81.2-81.2 0-29.2-15.6-56-41.2-70.4-11.6-6.8-25.6-10.4-40-10.4z" fill="#F68F6F"/><path d="M769.2 879.6h-223.2v-216h223.2v216z m-210.4-12.8h198V676h-198v190.8z" fill="#4A555F"/><path d="M573.6 690.8h168.4V852h-168.4z" fill="#71CDE1"/><path d="M556.652 665.184l210.492 203.524-8.896 9.2-210.496-203.52z" fill="#4A555F"/><path d="M758.296 665.156l8.9 9.2-210.436 203.58-8.9-9.2z" fill="#4A555F"/></svg>